<svg xmlns="http://www.w3.org/2000/svg" viewBox="0 0 443 326" aria-label="MOSHARKATECH logo">
<defs>
  <linearGradient id="i5_g" x1="221" y1="0" x2="221" y2="326" gradientUnits="userSpaceOnUse">
    <stop offset="0%"   stop-color="#FFFDE7"/>
    <stop offset="12%"  stop-color="#FDE68A"/>
    <stop offset="45%"  stop-color="#F59E0B"/>
    <stop offset="78%"  stop-color="#D97706"/>
    <stop offset="100%" stop-color="#92400E"/>
  </linearGradient>
  <radialGradient id="i5_bg" cx="50%" cy="44%" r="48%">
    <stop offset="0%"   stop-color="#FBBF24" stop-opacity="0.28"/>
    <stop offset="60%"  stop-color="#F59E0B" stop-opacity="0.07"/>
    <stop offset="100%" stop-color="#F59E0B" stop-opacity="0"/>
  </radialGradient>
  <mask id="i5_m" x="0" y="0" width="443" height="326" maskUnits="userSpaceOnUse">
    <rect width="443" height="326" fill="white"/>
    <path d="M -0 163.002 L -0 326.004 221.750 325.752 L 443.500 325.500 443.753 162.750 L 444.006 0 222.003 0 L 0 0 -0 163.002 M 0.488 163.500 C 0.488 253.150, 0.606 289.677, 0.750 244.671 C 0.894 199.665, 0.894 126.315, 0.750 81.671 C 0.606 37.027, 0.488 73.850, 0.488 163.500 M 209.500 52.994 C 198.222 54.673, 180.802 60.487, 173.463 65.023 C 171.642 66.149, 169.504 66.683, 168.194 66.340 C 165.657 65.677, 163 67.489, 163 69.883 C 163 70.784, 160.473 73.538, 157.385 76.002 C 150.647 81.379, 143.773 89.431, 137.859 98.875 C 135.462 102.704, 132.476 106.319, 131.225 106.908 C 129.413 107.762, 128.974 108.745, 129.068 111.740 C 129.133 113.808, 128.037 119.205, 126.631 123.733 C 108.150 183.273, 155.384 240.221, 214.684 229.895 L 221.032 228.789 215.109 222.457 C 211.851 218.975, 207.907 213.848, 206.343 211.064 L 203.500 206.002 197 205.980 C 177.312 205.913, 157.288 189.701, 150.758 168.542 C 147.966 159.496, 147.805 145.220, 150.396 136.500 C 154.251 123.528, 163.371 109.776, 168.844 108.681 C 170.855 108.279, 171.950 107.335, 172.376 105.637 C 173.176 102.450, 180.890 97.694, 190.485 94.473 C 196.474 92.463, 199.831 92, 208.426 92 C 218.115 92, 219 92.158, 219 93.884 C 219 95.461, 220.042 95.879, 225.406 96.453 C 248.638 98.941, 266.872 114.142, 272.416 135.644 C 273.287 139.024, 274 142.988, 274 144.455 L 274 147.121 281.228 146.500 C 285.203 146.158, 288.635 145.698, 288.855 145.478 C 289.933 144.401, 286.628 128.968, 283.934 122.497 C 279.748 112.440, 276.202 107.396, 267.528 99.157 C 255.850 88.063, 239.157 81.067, 224.250 81.017 C 219.048 81, 219 81.028, 219 84.083 C 219 85.779, 218.662 87.017, 218.250 86.833 C 217.838 86.650, 214.372 84.723, 210.548 82.551 C 206.724 80.379, 200.874 77.618, 197.548 76.415 C 194.222 75.212, 191.365 73.556, 191.200 72.735 C 190.831 70.900, 200.702 64.516, 210.668 60.144 C 214.610 58.415, 218.097 57, 218.418 57 C 218.738 57, 219 59.413, 219 62.362 L 219 67.725 227.441 68.410 C 238.846 69.335, 248.638 72.203, 259.461 77.788 C 266.715 81.532, 270.398 84.333, 278.113 91.976 C 286.745 100.529, 288.238 102.570, 292.750 112 C 298.038 123.052, 300.395 130.686, 301.497 140.326 C 302.024 144.937, 302.476 146.031, 303.663 145.576 C 304.488 145.259, 307.891 145, 311.225 145 L 317.287 145 316.660 138.250 C 314.433 114.292, 300.615 88.538, 282.051 73.748 C 261.102 57.057, 234.098 49.332, 209.500 52.994 M 207 56.127 C 195.471 57.999, 173.272 66.685, 172.260 69.720 C 171.784 71.149, 182.019 72.381, 183.346 71.054 C 183.926 70.474, 185.460 70, 186.755 70 C 188.050 70, 191.837 68.148, 195.171 65.884 C 198.505 63.620, 204.442 60.261, 208.366 58.420 C 215.896 54.886, 215.785 54.700, 207 56.127 M 170.575 73.878 C 170.194 74.495, 168.868 75, 167.629 75 C 166.323 75, 164.536 76.156, 163.376 77.750 C 160.423 81.810, 154.725 92.058, 155.172 92.505 C 155.385 92.718, 159.953 91.382, 165.323 89.536 C 175.442 86.058, 175.144 86.286, 182.465 76.399 C 183.840 74.541, 183.095 74.146, 176.833 73.410 C 173.140 72.976, 171.036 73.133, 170.575 73.878 M 153.647 83.250 C 147.009 89.831, 138.937 100.394, 137.314 104.625 C 136.753 106.086, 150.046 96.477, 150.789 94.885 C 150.948 94.543, 153.507 90.155, 156.475 85.132 C 159.443 80.109, 161.666 76, 161.416 76 C 161.165 76, 157.669 79.263, 153.647 83.250 M 187.070 77.478 C 183.951 78.605, 178.998 83.103, 179.001 84.806 C 179.002 85.188, 184.290 85.540, 190.751 85.589 C 198.528 85.647, 204.412 86.239, 208.154 87.339 C 211.264 88.252, 214.362 89, 215.039 89 C 216.850 89, 212.254 85.651, 206.351 82.669 C 202.045 80.495, 190.500 75.724, 190.500 76.120 C 190.500 76.185, 188.956 76.796, 187.070 77.478 M 181.179 87.740 L 175.857 88.109 173.438 93.305 C 172.108 96.162, 171.015 99.063, 171.010 99.750 C 170.998 101.254, 172.632 101.405, 173.512 99.981 C 174.993 97.584, 187.765 92.387, 199.500 89.407 C 202.337 88.686, 202.229 88.605, 197.500 87.910 C 192.297 87.145, 190.067 87.122, 181.179 87.740 M 168.500 90.183 C 166.850 90.748, 162.519 92.553, 158.876 94.195 L 152.251 97.180 149.914 104.045 C 147.409 111.403, 147.781 113.273, 151.295 110.996 C 152.508 110.211, 155.404 108.583, 157.732 107.379 C 163.389 104.453, 167.228 100.458, 170.404 94.190 C 173.197 88.678, 173.156 88.592, 168.500 90.183 M 142.252 104.256 C 138.771 107.072, 137.004 109.249, 137.002 110.724 C 137.001 112.177, 135.972 113.480, 134.038 114.480 C 131.671 115.704, 130.670 117.329, 129.049 122.578 C 126.724 130.104, 124.988 139.899, 125.074 145 L 125.134 148.500 126.402 144.500 C 128.932 136.520, 139.684 119, 142.051 119 C 142.573 119, 143 117.705, 143 116.122 C 143 114.540, 143.642 112.712, 144.427 112.060 C 145.705 111, 149 102.902, 149 100.822 C 149 99.257, 147.476 100.032, 142.252 104.256 M 156.712 110.083 C 153.192 111.900, 150.568 114.005, 150.017 115.455 C 149.519 116.766, 148.420 118.225, 147.576 118.697 C 145.383 119.925, 143.653 133.670, 144.587 142.452 C 145.397 150.076, 145.391 150.084, 148.009 138 C 149.591 130.699, 155.968 117.516, 160.421 112.341 C 165.916 105.955, 165.363 105.618, 156.712 110.083 M 220 117 C 220 124.754, 220.073 125, 222.374 125 C 223.680 125, 226.588 125.649, 228.837 126.442 C 237.171 129.383, 242.311 135.101, 244.575 143.951 L 245.738 148.500 253.119 148.140 C 257.179 147.942, 260.685 147.607, 260.911 147.396 C 261.136 147.185, 260.745 144.422, 260.041 141.256 C 256.433 125.033, 244.265 112.999, 228.526 110.089 C 219.503 108.421, 220 108.019, 220 117 M 138.540 125.719 C 134.228 131.213, 125.775 148.699, 126.680 150.250 C 126.921 150.662, 130.804 150.999, 135.309 150.998 L 143.500 150.997 143.500 135.498 C 143.500 126.973, 143.394 119.999, 143.265 119.999 C 143.135 120, 141.009 122.574, 138.540 125.719 M 194 138.878 C 186.677 141.280, 178.484 147.754, 172.960 155.500 C 171.602 157.406, 171.628 157.426, 173.517 155.922 C 187.013 145.179, 203.424 146.329, 215.992 158.897 C 219.618 162.523, 222.963 168.103, 230.471 183.056 C 235.840 193.750, 241.174 203.850, 242.324 205.500 C 245.091 209.471, 253.738 219.643, 257.500 223.351 C 263.524 229.290, 275.514 232.285, 284.055 229.985 C 286.500 229.327, 288.617 228.845, 288.760 228.914 C 289.575 229.309, 295.651 225.403, 298.065 222.934 L 300.892 220.041 301.196 224.771 C 301.390 227.796, 301.950 229.464, 302.750 229.400 C 303.438 229.345, 306.728 229.233, 310.061 229.150 L 316.123 229 315.811 203.250 C 315.500 177.528, 315.497 177.494, 312.821 172.423 C 307.727 162.770, 297.936 157.795, 284 157.778 C 273.073 157.765, 262.884 160.805, 255.639 166.240 C 253.851 167.580, 253.905 167.862, 256.984 173.318 C 258.748 176.443, 260.430 179, 260.723 179 C 261.015 179, 264.047 177.625, 267.460 175.945 C 281.867 168.852, 295.738 172.140, 298.542 183.311 L 299.217 186 286.290 186 C 272.139 186, 265.776 187.306, 259.642 191.468 L 255.991 193.946 253.648 190.223 C 252.359 188.175, 247.825 179.624, 243.572 171.220 C 231.045 146.468, 222.205 138.934, 205 138.348 C 200.325 138.188, 195.375 138.427, 194 138.878 M 185.882 158.323 C 181.388 160, 175.664 163.495, 173.870 165.656 C 172.657 167.118, 172.776 167.195, 175.008 166.394 C 176.379 165.902, 179.525 165.541, 182 165.592 C 191.102 165.778, 197.280 171.300, 203.711 185 C 206.164 190.225, 209.691 197.679, 211.549 201.565 C 218.655 216.429, 231.116 226.345, 246 228.980 C 249.575 229.613, 253.287 230.285, 254.250 230.472 C 256.877 230.983, 256.369 230.242, 252.843 228.419 C 248.243 226.040, 240.383 218.387, 235.467 211.500 C 233.111 208.200, 227.385 197.589, 222.743 187.920 C 213.835 169.368, 209.533 163.333, 202.750 159.872 C 197.677 157.285, 190.446 156.620, 185.882 158.323 M 274.315 199.464 C 270.529 201.110, 267.707 205.984, 268.563 209.397 C 271.016 219.170, 288.842 219.468, 295.949 209.855 C 297.231 208.121, 298.500 204.745, 298.770 202.352 L 299.260 198 288.380 198.039 C 281.389 198.064, 276.361 198.574, 274.315 199.464 M 174.544 260.167 C 174.292 260.900, 173.954 262.850, 173.793 264.500 C 173.505 267.445, 173.386 267.505, 167.250 267.798 L 161 268.095 161 264.048 C 161 260.667, 160.671 260, 159 260 C 157.133 260, 157 260.667, 157 270 C 157 279.333, 157.133 280, 159 280 C 160.704 280, 161 279.333, 161 275.500 L 161 271 167.500 271 L 174 271 174 275.500 C 174 279.359, 174.290 280, 176.035 280 C 177.967 280, 178.056 279.485, 177.785 269.831 C 177.588 262.799, 177.115 259.535, 176.251 259.248 C 175.563 259.020, 174.795 259.434, 174.544 260.167 M 191.212 259.675 C 189.922 260.193, 181 277.059, 181 278.980 C 181 281.275, 184.814 279.863, 185.937 277.152 C 187.054 274.456, 187.379 274.330, 192.076 274.781 C 196.459 275.202, 196.959 275.058, 196.376 273.537 C 195.878 272.239, 194.808 271.904, 192.014 272.170 L 188.311 272.523 190.099 268.531 C 191.082 266.335, 192.380 264.373, 192.984 264.172 C 193.587 263.971, 195.736 267.450, 197.759 271.903 C 200.837 278.678, 201.819 280, 203.778 280 C 205.065 280, 205.936 279.663, 205.713 279.250 C 205.490 278.837, 203.465 274.593, 201.213 269.817 C 197.843 262.669, 194.673 258.615, 192.816 259.079 C 192.642 259.122, 191.920 259.391, 191.212 259.675 M 211.250 259.820 C 210.012 259.995, 209 260.783, 209 261.570 C 209 262.682, 210.657 263, 216.465 263 C 222.983 263, 224.070 263.262, 225.034 265.064 C 227.003 268.742, 224.703 270, 216.011 270 L 208.267 270 208.267 275 C 208.267 279.592, 208.460 280, 210.633 280 C 212.671 280, 213 279.514, 213 276.500 C 213 273.121, 213.130 273, 216.750 273.007 C 219.910 273.013, 220.874 273.563, 222.879 276.507 C 224.504 278.893, 226.031 280, 227.697 280 L 230.136 280 228.068 277.096 C 225.627 273.667, 225.553 273.080, 227.380 271.610 C 229.449 269.946, 230.078 265.790, 228.685 262.986 C 227.591 260.781, 226.663 260.444, 220.476 260 C 216.639 259.725, 212.488 259.644, 211.250 259.820 M 234 269.588 C 234 279.333, 234.128 280, 236 280 C 237.704 280, 238 279.333, 238 275.500 C 238 271.227, 238.143 271, 240.830 271 C 243.040 271, 244.370 271.988, 246.893 275.500 C 249.277 278.820, 250.796 280, 252.685 280 C 254.566 280, 254.996 279.669, 254.308 278.750 C 253.792 278.063, 251.891 275.577, 250.083 273.227 L 246.796 268.955 250.465 264.477 C 254.029 260.127, 254.066 260, 251.759 260 C 250.150 260, 248.434 261.283, 246.442 263.976 C 244.296 266.877, 242.772 267.959, 240.807 267.976 C 238.360 267.998, 238.087 267.621, 237.807 263.840 C 237.582 260.785, 237.035 259.613, 235.750 259.429 C 234.179 259.203, 234 260.244, 234 269.588 M 266.750 259.689 C 265.788 259.941, 265 260.282, 265 260.448 C 265 260.614, 262.990 265.081, 260.533 270.375 C 256.132 279.857, 256.100 280, 258.403 280 C 260.374 280, 261.337 278.663, 264.529 271.500 C 266.612 266.825, 268.606 263, 268.959 263 C 269.312 263, 270.585 265.025, 271.788 267.500 L 273.974 272 269.987 272 C 266.781 272, 266 272.361, 266 273.841 C 266 275.455, 266.550 275.599, 270.448 275.008 C 274.656 274.369, 274.959 274.486, 276.069 277.166 C 276.883 279.133, 277.957 280, 279.575 280 C 281.882 280, 281.862 279.903, 277.779 271.250 C 272.095 259.204, 271.400 258.474, 266.750 259.689 M 76.667 260.667 C 76.300 261.033, 76 265.533, 76 270.667 C 76 278.296, 76.274 280, 77.500 280 C 78.708 280, 79 278.444, 79 272 C 79 267.411, 79.420 264, 79.986 264 C 80.528 264, 82.334 266.700, 84 270 C 88.065 278.052, 89.923 278.006, 94.236 269.750 L 97.500 263.500 97.790 271.750 C 98.054 279.230, 98.267 280, 100.077 280 C 101.954 280, 102.055 279.422, 101.786 270.250 L 101.500 260.500 98.225 260.185 C 95.128 259.887, 94.810 260.173, 92.401 265.435 C 91 268.496, 89.530 271, 89.135 271 C 88.740 271, 87.203 268.525, 85.719 265.500 C 83.392 260.755, 82.631 260, 80.178 260 C 78.613 260, 77.033 260.300, 76.667 260.667 M 108.573 261.570 C 105.002 265.141, 105.289 275.196, 109.048 278.240 C 111.465 280.198, 120.125 280.663, 124.337 279.062 C 129.085 277.257, 130.392 266.301, 126.388 261.876 C 124.117 259.367, 111.001 259.141, 108.573 261.570 M 134.058 261.431 C 132.725 263.036, 132.302 268.633, 133.427 269.764 C 133.830 270.169, 137.387 270.725, 141.330 271 C 147.826 271.453, 148.530 271.712, 148.820 273.750 C 149.128 275.924, 148.866 276, 141.070 276 C 133.667 276, 133 276.165, 133 278 C 133 279.840, 133.667 280, 141.345 280 C 150.587 280, 153 278.702, 153 273.728 C 153 269.907, 149.617 268, 142.837 268 C 136.891 268, 135.572 267.278, 136.604 264.590 C 137.085 263.335, 138.771 263, 144.607 263 C 150.512 263, 152 262.698, 152 261.500 C 152 259.378, 135.813 259.315, 134.058 261.431 M 280.333 261.500 C 280.333 262.603, 281.481 263, 284.667 263 L 289 263 289 271.500 C 289 279.333, 289.157 280, 291 280 C 292.867 280, 293 279.333, 293 270 L 293 260 286.667 260 C 281.704 260, 280.333 260.325, 280.333 261.500 M 295 261.500 C 295 262.548, 296.056 263, 298.500 263 C 300.944 263, 302 262.548, 302 261.500 C 302 260.452, 300.944 260, 298.500 260 C 296.056 260, 295 260.452, 295 261.500 M 306.980 261.524 C 306.284 262.362, 305.892 263.196, 306.107 263.376 C 306.323 263.557, 310.663 263.491, 315.750 263.230 C 322.711 262.873, 325 262.414, 325 261.378 C 325 259.292, 308.722 259.425, 306.980 261.524 M 331 262 C 327.902 265.098, 328.170 274.261, 331.455 277.545 C 333.627 279.718, 334.777 280, 341.455 280 C 348.279 280, 349 279.813, 349 278.042 C 349 276.292, 348.178 276.053, 341.250 275.792 L 333.500 275.500 333.192 270.095 C 332.985 266.447, 333.310 264.420, 334.192 263.860 C 334.912 263.404, 338.538 263.024, 342.250 263.015 C 347.577 263.003, 349 262.684, 349 261.500 C 349 260.292, 347.444 260, 341 260 C 334.333 260, 332.667 260.333, 331 262 M 353.843 265.250 C 353.261 274.163, 353.939 280, 355.555 280 C 356.601 280, 357 278.758, 357 275.500 L 357 271 364 271 L 371 271 371 275.500 C 371 278.833, 371.389 280, 372.500 280 C 373.733 280, 374 278.222, 374 270 C 374 261.987, 373.715 260, 372.567 260 C 371.220 260, 369.746 262.759, 370.084 264.646 C 370.607 267.564, 369.751 268, 363.500 268 L 357 268 357 264 C 357 261.228, 356.568 260, 355.593 260 C 354.605 260, 354.083 261.566, 353.843 265.250 M 110.409 264.377 C 110.118 265.134, 110.020 267.947, 110.190 270.627 L 110.500 275.500 117.500 275.500 L 124.500 275.500 124.806 271.288 C 125.304 264.422, 123.953 263, 116.933 263 C 112.764 263, 110.776 263.420, 110.409 264.377 M 305 272 C 305 278.432, 307.353 280, 317 280 C 324.276 280, 325 279.823, 325 278.042 C 325 276.292, 324.178 276.053, 317.250 275.792 C 310.078 275.522, 309.476 275.332, 309.180 273.250 C 308.872 271.076, 309.134 271, 316.930 271 C 323.437 271, 325 270.709, 325 269.500 C 325 268.267, 323.222 268, 315 268 L 305 268 305 272" fill="black" fill-rule="evenodd"/>
  </mask>
</defs>

<!-- Dark background -->
<rect width="443" height="326" fill="#1B2030"/>

<!-- Ambient warm glow -->
<ellipse cx="221" cy="143" rx="200" ry="145" fill="url(#i5_bg)"/>

<!-- Subtle light trails -->
<line x1="30" y1="310" x2="420" y2="55"  stroke="#FBBF24" stroke-width="0.8" opacity="0.18"/>
<line x1="55" y1="300" x2="380" y2="80"  stroke="#FDE68A" stroke-width="1.2" opacity="0.10"/>
<line x1="10" y1="270" x2="340" y2="65"  stroke="#F59E0B" stroke-width="0.5" opacity="0.20"/>

<!-- Gold logo revealed through mask -->
<rect width="443" height="326" fill="url(#i5_g)" mask="url(#i5_m)"/>

</svg>
